<?xml version="1.0" encoding="UTF-8" standalone="no"?>
<!-- Created with Inkscape (http://www.inkscape.org/) -->

<svg
   width="7.6427574mm"
   height="11.483582mm"
   viewBox="0 0 7.6427574 11.483582"
   version="1.1"
   id="svg5"
   xml:space="preserve"
   inkscape:version="1.2.2 (732a01da63, 2022-12-09)"
   sodipodi:docname="sorc.svg"
   xmlns:inkscape="http://www.inkscape.org/namespaces/inkscape"
   xmlns:sodipodi="http://sodipodi.sourceforge.net/DTD/sodipodi-0.dtd"
   xmlns="http://www.w3.org/2000/svg"
   xmlns:svg="http://www.w3.org/2000/svg"><sodipodi:namedview
     id="namedview7"
     pagecolor="#ffffff"
     bordercolor="#000000"
     borderopacity="0.25"
     inkscape:showpageshadow="2"
     inkscape:pageopacity="0.0"
     inkscape:pagecheckerboard="0"
     inkscape:deskcolor="#d1d1d1"
     inkscape:document-units="px"
     showgrid="false"
     inkscape:zoom="11.313708"
     inkscape:cx="557.33273"
     inkscape:cy="2660.0473"
     inkscape:window-width="1920"
     inkscape:window-height="1017"
     inkscape:window-x="-8"
     inkscape:window-y="-8"
     inkscape:window-maximized="1"
     inkscape:current-layer="layer3"
     inkscape:lockguides="true" /><defs
     id="defs2"><linearGradient
       id="linearGradient49330"
       inkscape:swatch="solid"><stop
         style="stop-color:#222424;stop-opacity:1;"
         offset="0"
         id="stop49328" /></linearGradient></defs><g
     inkscape:groupmode="layer"
     id="layer2"
     inkscape:label="Layer 2"
     style="display:inline"
     transform="translate(-62.21874,-756.82457)"><g
       id="g79032"
       inkscape:label="Skill Teirs"
       inkscape:export-filename="g79032.svg"
       inkscape:export-xdpi="96"
       inkscape:export-ydpi="96"
       style="display:inline"><g
         id="g2190"
         inkscape:label="Ultimate"
         style="display:inline;fill:#807b67;fill-opacity:1"><path
           style="display:inline;opacity:1;fill:#807b67;fill-opacity:1;stroke-width:4.80595;stop-color:#000000"
           d="m 65.238453,758.94412 c 0.06367,0.38723 -0.287205,1.18171 -0.287205,1.18171 0,0 0.49467,-0.3139 0.663536,-0.79067 0.168866,-0.47677 0.03377,-1.01959 -0.09519,-1.61223 -0.04844,-0.35993 0.271538,-0.89836 0.271538,-0.89836 0,0 -0.813159,0.54157 -0.813159,1.15003 0.03216,0.61895 0.196812,0.58229 0.26048,0.96952 z"
           id="path2087-6"
           sodipodi:nodetypes="zczcccz" /><path
           style="opacity:1;fill:#807b67;fill-opacity:1;stroke-width:2;stop-color:#000000"
           d="m 62.922158,766.296 c 0,0 -0.307186,-0.30137 -0.43088,-0.22001 -0.08736,0.0575 0.181901,0.4382 0.181901,0.4382 l 0.487825,0.73589 -0.0083,0.19015 0.223243,0.0414 0.02479,-0.36381 0.446484,0.008 c 0,0 0.181902,0.52091 0.314193,0.62013 0.132292,0.0992 0.438216,0.27284 0.438216,0.27284 v -0.33899 c 0,0 -0.206705,-0.0744 -0.281119,-0.20672 -0.07442,-0.13229 -0.115756,-0.33073 -0.115756,-0.33073 l 1.529623,-0.0331 0.338997,1.19891 0.396875,-1.16584 1.273307,-0.008 c 0,0 -0.01654,0.19844 -0.115755,0.33899 -0.09922,0.14057 -0.173633,0.24804 -0.173633,0.24804 l 0.0083,0.29766 c 0,0 0.413412,-0.33073 0.471289,-0.4382 0.05788,-0.1075 0.132292,-0.4217 0.132292,-0.4217 l 0.603581,-0.0164 -0.124024,0.26458 0.09922,0.17365 0.694531,-1.0418 c 0,0 0.09095,-0.24805 -0.0083,-0.26458 -0.09922,-0.0164 -0.380338,0.19843 -0.380338,0.19843 0,0 -0.07441,0.10748 -0.206706,0.12402 -0.132292,0.0164 -0.570508,0.0164 -0.570508,0.0164 l 0.0083,-0.28938 0.239779,-0.29765 c 0,0 0.777213,-0.68628 1.016992,-1.08315 0.239779,-0.39688 0.314193,-1.15756 0.289388,-1.38907 -0.02479,-0.23151 -0.09095,-0.60356 -0.157096,-0.6201 -0.06615,-0.0164 -0.223242,0 -0.239779,0.0496 -0.01654,0.0496 0.173633,0.78547 0.06615,1.16581 -0.107487,0.38034 -0.173633,0.59531 -0.454753,0.89297 -0.281119,0.29765 -0.818554,0.81856 -0.818554,0.81856 l -0.380339,-0.37208 0.09922,-0.19016 0.289388,-0.29765 0.504362,-0.89297 1.02526,-2.2407 c 0,0 0.231511,-0.19844 0.198438,-0.28112 -0.03307,-0.0827 -0.132292,-0.24805 -0.248047,-0.23977 -0.115755,0.008 -0.876432,-0.008 -0.876432,-0.008 l 0.02479,0.31419 0.537435,0.008 -0.884701,2.07532 -0.504362,0.85989 -0.60358,0.79375 c 0,0 0.28112,0.1819 0.429948,0.52917 0.148828,0.34726 0.132291,0.66146 0.132291,0.66146 l -1.347721,-0.008 -0.438216,-1.18237 -0.446485,1.15756 -1.529622,0.0414 c 0,0 -0.01654,-0.42995 0.09922,-0.59531 0.115755,-0.16537 0.355534,-0.43823 0.355534,-0.43823 l -1.825273,-3.69104 -0.05987,-0.23678 1.052486,-0.004 -0.0025,-0.3517 -1.256771,0.0414 c 0,0 -0.148828,-0.0164 -0.198437,0.0909 -0.04961,0.1075 0.0083,0.23151 0.0083,0.23151 l 1.04041,2.17584 0.770332,1.61101 v 0.20672 l -0.214974,0.30591 c 0,0 -0.843359,-0.57878 -1.066602,-1.17409 -0.264405,-0.60215 -0.257756,-1.00495 -0.07441,-1.5875 0.0083,-0.0579 -0.05788,-0.21497 -0.107487,-0.21497 -0.04961,0 -0.280203,0.27788 -0.346348,0.42671 -0.06615,0.14882 -0.119595,0.78687 0.09438,1.25508 0.15137,0.33122 0.668308,1.05875 0.963041,1.25344 0,0 0.266843,0.19938 0.330178,0.34557 0.04149,0.0958 0.01723,0.31264 0.01723,0.31264 l -0.311789,0.0144 z"
           id="path1933"
           sodipodi:nodetypes="csccccccsccscccccsccscccccscscccssssssccccccscccccccscccccsccccccscccccccssscsccc" /><path
           style="opacity:1;fill:#807b67;fill-opacity:1;stroke-width:2;stop-color:#000000"
           d="m 66.211851,764.70742 c 0.239708,-0.0585 0.608039,-0.12277 0.70743,-0.21048 0.09939,-0.0877 0.11693,-0.22217 0.245555,-0.2631 0.128621,-0.0409 0.263091,0 0.344942,-0.1637 0.08185,-0.16369 0.134472,-0.26892 0.146164,-0.53202 0.01169,-0.2631 0.251402,-0.64312 0.350792,-0.73081 0.09939,-0.0877 0.35079,-0.66651 0.309864,-0.8536 -0.04093,-0.18708 -0.122777,-0.35663 -0.122777,-0.35663 0,0 -0.02339,0.39757 -0.122777,0.50279 -0.09939,0.10525 -0.216321,0.18124 -0.216321,0.18124 0,0 -0.02339,-0.30401 0.01754,-0.37417 0.04093,-0.0702 0.204629,-0.3157 0.192937,-0.4385 -0.0117,-0.12276 -0.0117,-0.49696 -0.07016,-0.67235 -0.05846,-0.17539 -0.239707,-0.78928 -0.204628,-1.04653 0.03508,-0.25723 -0.163701,0.79514 -0.140317,0.98808 0.02339,0.19293 -0.228012,0.45019 -0.257246,0.54956 -0.02923,0.0994 -0.02923,0.4268 -0.08185,0.45019 -0.05262,0.0233 -0.187087,0.0818 -0.198781,-0.0292 -0.0117,-0.11107 -0.02339,-0.47942 0.09939,-0.68405 0.122777,-0.20463 0.298172,-0.92959 0.274788,-1.2219 -0.02339,-0.29234 -0.03508,-0.48527 -0.08185,-0.61973 -0.04677,-0.13449 -0.385871,-0.76592 -0.321558,-0.953 0.06431,-0.18709 -0.181243,0.20463 -0.105238,0.45018 0.076,0.24556 0.280633,1.37393 0.140316,1.91183 -0.140316,0.53787 -0.68989,0.91789 -0.608039,1.40901 0.08185,0.4911 0.195859,0.98514 0.166625,1.17223 -0.02923,0.18708 -0.131313,0.53731 -0.207317,0.58409 -0.076,0.0467 -0.125724,0.0687 -0.190036,-0.0249 -0.06431,-0.0935 0.172263,-0.37504 0.160571,-0.53289 -0.01169,-0.15788 -0.251443,-0.62553 -0.251402,-0.94131 4.7e-5,-0.35663 0.169549,-0.88281 0.350792,-1.20436 0.08844,-0.15692 0.356638,-0.54374 0.356638,-0.54374 l 0.05262,-0.66649 c 0,0 -0.654812,0.90035 -0.830207,1.14591 -0.175398,0.24554 -0.298172,0.6431 -0.292328,0.79513 0.0058,0.152 0.0877,0.57295 0.0877,0.57295 l -0.257246,-0.12864 c 0,0 -0.09939,-0.96467 -0.02339,-1.14591 0.076,-0.18124 0.239707,-0.29815 0.239707,-0.39756 0,-0.0994 -0.07016,-0.36248 0.076,-0.53787 0.146164,-0.17539 0.432644,-0.61973 0.456028,-0.82436 0.02339,-0.20463 -0.01169,-0.46773 -0.06431,-0.5905 -0.05262,-0.12279 -0.07601,-0.46773 0.0117,-0.61389 0.0877,-0.14615 0.11693,-0.44434 0.11693,-0.44434 0,0 -0.286478,0.24556 -0.391716,0.57296 -0.105238,0.32742 0.03508,0.83021 -0.01169,1.01145 -0.04677,0.18124 -0.257247,0.58465 -0.473568,0.76589 -0.21632,0.18124 -0.61973,0.33327 -0.707429,0.6899 -0.0877,0.35663 -0.0117,1.16345 -0.06431,1.25701 -0.05262,0.0935 -0.204626,0.0116 -0.228012,-0.0233 -0.02339,-0.0351 0,-0.40925 -0.05262,-0.60804 -0.05262,-0.19878 -0.140317,-0.32742 -0.0877,-0.52035 0.05262,-0.19294 0.257247,-0.43262 0.2514,-0.69572 -0.0058,-0.26311 -0.18792,-0.8156 -0.274786,-0.88868 -0.111083,-0.0935 -0.245555,-0.0526 -0.245555,-0.0526 0,0 0.228016,0.38003 0.169551,0.68988 -0.05846,0.30988 -0.292328,0.59634 -0.280633,0.97636 0.01169,0.38003 -0.06431,0.88284 0.01754,1.06408 0.08185,0.18124 0.321558,0.21632 0.420949,0.63143 0.09939,0.4151 0.076,0.8945 0.076,0.8945 0,0 -0.34073,-1.02622 -0.487744,-1.03732 0,0 0.0902,0.21068 0.101868,0.80348 0.01948,0.99 1.180997,1.40901 1.432399,1.46746 0.251399,0.0585 0.578805,0.0351 0.578805,0.0351 z"
           id="path2085"
           sodipodi:nodetypes="csssssscscsssssssssssssssssssssccssccsssssscsssssssssscssssccsscc" /><path
           style="opacity:1;fill:#807b67;fill-opacity:1;stroke-width:2;stop-color:#000000"
           d="m 68.29971,760.16862 c 0.06615,0.20257 0.02481,0.6201 -0.0124,0.68212 -0.03721,0.062 0.0041,-0.28112 -0.128159,-0.49196 -0.21826,-0.26243 -0.07438,-0.58609 3.4e-5,-0.85988 0.01654,-0.15712 -0.0165,-0.31008 -0.0165,-0.31008 0,0 0.202571,0.091 0.202571,0.42582 0,0.33486 -0.104512,0.25921 -0.04547,0.55398 h 3e-6 z"
           id="path2087"
           sodipodi:nodetypes="sscccssss" /><path
           style="display:inline;opacity:1;fill:#807b67;fill-opacity:1;stroke-width:2;stop-color:#000000"
           d="m 63.634314,759.67712 c 0.06615,0.20257 0.188375,0.64716 0.06201,0.66558 -0.126361,0.0184 -0.128194,-0.24391 -0.260451,-0.45475 -0.197589,-0.27483 -0.14893,-0.64792 0.04551,-0.85161 0.19444,-0.20369 0.190205,-0.63254 0.190205,-0.63254 0,0 0.152962,0.23569 0.152962,0.57051 0,0.33486 -0.249206,0.40804 -0.190164,0.70281 h 3e-6 z"
           id="path2087-9"
           sodipodi:nodetypes="szczcssss" /><path
           style="opacity:1;fill:#807b67;fill-opacity:1;stroke-width:2;stop-color:#000000"
           d="m 66.013543,760.62336 c 0,0 0.653191,-0.5457 0.698667,-0.6904 0.04547,-0.14467 0.07855,-0.4754 0.03307,-0.64077 -0.04548,-0.16536 -0.119891,-0.26874 -0.119891,-0.26874 0,0 0.03307,0.55812 -0.107487,0.75243 -0.140559,0.19431 -0.401007,0.42994 -0.425812,0.52088 -0.02479,0.091 -0.128159,0.20672 -0.07855,0.3266 z"
           id="path2180" /></g></g></g></svg>
