<?xml version="1.0" encoding="UTF-8" standalone="no"?>
<!-- Created with Inkscape (http://www.inkscape.org/) -->

<svg
   width="6.9080009mm"
   height="12.641968mm"
   viewBox="0 0 6.9080009 12.641968"
   version="1.1"
   id="svg5"
   xml:space="preserve"
   inkscape:version="1.2.2 (732a01da63, 2022-12-09)"
   sodipodi:docname="sorc.svg"
   xmlns:inkscape="http://www.inkscape.org/namespaces/inkscape"
   xmlns:sodipodi="http://sodipodi.sourceforge.net/DTD/sodipodi-0.dtd"
   xmlns="http://www.w3.org/2000/svg"
   xmlns:svg="http://www.w3.org/2000/svg"><sodipodi:namedview
     id="namedview7"
     pagecolor="#ffffff"
     bordercolor="#000000"
     borderopacity="0.25"
     inkscape:showpageshadow="2"
     inkscape:pageopacity="0.0"
     inkscape:pagecheckerboard="0"
     inkscape:deskcolor="#d1d1d1"
     inkscape:document-units="px"
     showgrid="false"
     inkscape:zoom="8"
     inkscape:cx="250.1875"
     inkscape:cy="1578.75"
     inkscape:window-width="1920"
     inkscape:window-height="1017"
     inkscape:window-x="-8"
     inkscape:window-y="-8"
     inkscape:window-maximized="1"
     inkscape:current-layer="g79032"
     inkscape:lockguides="true" /><defs
     id="defs2"><linearGradient
       id="linearGradient49330"
       inkscape:swatch="solid"><stop
         style="stop-color:#222424;stop-opacity:1;"
         offset="0"
         id="stop49328" /></linearGradient></defs><g
     inkscape:groupmode="layer"
     id="layer2"
     inkscape:label="Layer 2"
     style="display:inline"
     transform="translate(-63.624021,-409.40978)"><g
       id="g79032"
       inkscape:label="Skill Teirs"
       inkscape:export-filename="g79032.svg"
       inkscape:export-xdpi="96"
       inkscape:export-ydpi="96"
       style="display:inline"><path
         style="fill:#817d6b;fill-opacity:1;stroke-width:2;stop-color:#000000"
         d="m 63.62402,420.52213 0.03307,0.7276 2.430859,0.80201 0.05788,-0.21497 -2.24069,-0.77722 -0.01654,-0.5457 z"
         id="path517" /><path
         style="fill:#817d6b;fill-opacity:1;stroke-width:2;stop-color:#000000"
         d="m 64.194528,418.95942 0.04961,1.78594 1.95957,0.61185 1.819011,-1.03352 2.315104,-1.93476 c 0,0 0.192076,-0.99745 0.194181,-1.50242 0.0025,-0.60877 -0.218986,-1.81316 -0.218986,-1.81316 l -0.157096,-0.0992 -0.157096,0.0164 -0.173633,0.27286 -0.02479,1.35599 0.06615,0.34727 -0.0083,0.31419 c 0,0 -0.04961,0.20669 -0.04961,0.2563 0,0.0496 -0.06615,0.71107 -0.06615,0.71107 l -0.620117,0.39688 -0.09922,-0.10748 0.248047,-0.43823 -0.01654,-0.59531 -0.09095,-0.22323 -0.587044,-0.95086 -0.553972,-0.49609 -0.520898,-0.29766 -0.454753,0.0661 -0.03307,0.13229 0.132292,0.17365 0.56224,0.42166 0.380338,0.32248 c 0,0 0.04961,0.14882 0.05788,0.1819 0.0083,0.0331 0.09922,0.33898 0.09922,0.33898 l 0.03307,0.59531 -0.07441,0.43823 -0.132291,0.2067 -0.272852,0.0164 -1.198893,-1.28156 -1.149284,-1.15755 -0.190169,-0.0249 -0.08268,0.16536 0.03307,0.45477 1.570964,1.97609 0.223242,0.37208 0.338998,0.0992 c 0,0 0.223242,-0.008 0.181901,0.0331 -0.04134,0.0413 -0.520899,0.0496 -0.520899,0.0496 l -0.363802,-0.0249 -0.644922,0.0579 -0.65319,0.48782 c 0,0 -0.23151,0.23151 -0.272851,0.24804 -0.04134,0.0164 -0.487826,0.0249 -0.487826,0.0249 l 0.01654,-0.091 c 0,0 0.413412,-0.0164 0.446485,-0.0249 0.03307,-0.008 0.835091,-0.71107 0.835091,-0.71107 l 0.06615,-0.0827 0.677995,-0.0661 -0.173633,-0.28112 -0.363802,-0.0992 -0.264584,-0.22325 0.248047,-0.32245 -0.314192,-0.35555 -0.264584,-0.13229 -0.28112,0.20672 z"
         id="path1883"
         sodipodi:nodetypes="cccccscccccccsccccccccccccccsccccccccccccccccccccccccccccccccc" /><path
         style="fill:#817d6b;fill-opacity:1;stroke-width:2;stop-color:#000000"
         d="m 69.254684,416.63606 0.0083,0.38034 c 0,0 -0.04134,0.26458 0.01654,0.28112 0.05788,0.0164 0.181901,0.0496 0.181901,0.0496 0,0 0.107487,-0.1075 0.115756,-0.25633 0.0083,-0.14883 0.04961,-0.16536 -0.03307,-0.28937 -0.08268,-0.12404 -0.09922,-0.20672 -0.190169,-0.19844 -0.09095,0.008 -0.09922,0.0331 -0.09922,0.0331 z"
         id="path1885" /><path
         style="fill:#817d6b;fill-opacity:1;stroke-width:2;stop-color:#000000"
         d="m 68.733786,415.74309 c 0,0 0.05788,0.3886 0.190169,0.46302 0.132291,0.0744 0.328308,-0.12325 0.402722,-0.22242 0.07441,-0.0992 0.222667,-0.4356 0.227376,-0.85989 -0.01137,-0.7874 -0.328109,-1.55674 -0.324173,-1.89425 0.0124,-0.38862 0.469969,-0.90341 0.483691,-1.29399 0.01616,-0.45996 -0.413031,-1.26853 -0.40836,-1.28346 -0.05728,-0.22194 0.03306,1.09968 -0.14056,1.29812 -0.173633,0.19844 -0.476474,0.84514 -0.472206,1.55217 0.0045,0.74846 0.239071,1.20637 0.248047,1.5379 0.0083,0.30593 -0.206705,0.7028 -0.206706,0.7028 z"
         id="path1887"
         sodipodi:nodetypes="cssccsccssc" /><path
         style="fill:#817d6b;fill-opacity:1;stroke-width:2;stop-color:#000000"
         d="m 67.803611,417.07842 c -0.06201,0.0206 -0.157096,0.0909 -0.152961,0.15295 0.0041,0.062 -0.02066,0.31007 0.119888,0.33073 0.14056,0.0206 0.173633,-0.0868 0.173633,-0.16536 0,-0.0786 0.0083,-0.25217 -0.04961,-0.28525 -0.05788,-0.0331 -0.09095,-0.0331 -0.09095,-0.0331 z"
         id="path1985" /><path
         style="fill:#817d6b;fill-opacity:1;stroke-width:2;stop-color:#000000"
         d="m 68.848631,410.23868 c 0,0 -0.07721,0.74363 -0.210476,0.8419 -0.578805,0.42679 -1.186845,1.0173 -1.22777,1.74225 -0.04093,0.72496 -0.379679,1.73418 -0.07308,2.12229 0.230936,0.29233 0.651888,0.61972 0.944213,0.51449 0.292328,-0.10525 0.417647,-0.80122 0.101936,-1.21047 -0.315715,-0.40926 -0.242251,-1.92485 -0.03178,-2.23313 0.177402,-0.25984 0.555421,-0.34493 0.637273,-0.5671 0.08185,-0.22217 -0.140317,-1.21023 -0.140318,-1.21023 z"
         id="path1987"
         sodipodi:nodetypes="csssssssc" /><path
         style="fill:#817d6b;fill-opacity:1;stroke-width:2;stop-color:#000000"
         d="m 67.563814,409.40977 c 0,0 -0.69196,1.73608 -0.712395,1.95846 -0.05312,0.57802 0.127378,1.40092 0.132172,1.39613 0,0 0.183115,-0.66235 0.395057,-0.98392 0.309895,-0.47019 0.444292,-0.75705 0.445008,-0.86345 3.71e-4,-0.0551 -0.259842,-1.50722 -0.259842,-1.50722 z"
         id="path1991"
         sodipodi:nodetypes="cscssc" /><path
         style="fill:#817d6b;fill-opacity:1;stroke-width:2;stop-color:#000000"
         d="m 65.674543,412.87401 c 0,0 -0.420449,1.26391 -0.39274,1.75701 0.03388,0.60298 0.624251,1.45934 0.839225,1.59989 0.214974,0.14057 0.537435,0.14882 0.628385,0.38033 0.09095,0.23151 0.03307,0.55399 0.28112,0.66974 0.248047,0.11576 0.297656,0.0992 0.338997,0.0413 0.04134,-0.0579 -0.0083,-0.29765 0.07441,-0.37205 0.08268,-0.0744 0.297657,-0.19844 0.223243,-0.32248 -0.07441,-0.12401 -0.413412,-0.10747 -0.487826,-0.31419 -0.07441,-0.20669 -0.487825,-0.47128 -0.438216,-0.64492 0.04961,-0.17362 0.380339,-0.19016 0.363802,-0.37206 -0.01654,-0.1819 0.01654,-0.22326 -0.09922,-0.28112 -0.115755,-0.0579 -0.305924,-0.5457 -0.206705,-0.95912 0.09922,-0.41341 -0.173633,-0.7276 -0.214974,-1.17408 -0.04134,-0.44649 -0.231511,-1.28985 -0.08268,-1.59578 0.148828,-0.30592 -0.421679,0.76067 -0.446484,1.04179 -0.02479,0.28112 -0.04134,2.70373 0.107487,2.84427 0.148828,0.14058 0.28112,0.28112 0.148828,0.3142 -0.132292,0.0331 -0.496094,-0.19844 -0.496094,-0.38034 0,-0.1819 -0.02479,-1.90995 -0.14056,-2.23242 z"
         id="path1993"
         sodipodi:nodetypes="csssssssssssssssssssc" /></g></g></svg>
