<?xml version="1.0" encoding="UTF-8" standalone="no"?>
<!-- Created with Inkscape (http://www.inkscape.org/) -->

<svg
   width="12.894592mm"
   height="11.013657mm"
   viewBox="0 0 12.894592 11.013657"
   version="1.1"
   id="svg5"
   xml:space="preserve"
   inkscape:version="1.2.2 (732a01da63, 2022-12-09)"
   sodipodi:docname="sorc.svg"
   xmlns:inkscape="http://www.inkscape.org/namespaces/inkscape"
   xmlns:sodipodi="http://sodipodi.sourceforge.net/DTD/sodipodi-0.dtd"
   xmlns="http://www.w3.org/2000/svg"
   xmlns:svg="http://www.w3.org/2000/svg"><sodipodi:namedview
     id="namedview7"
     pagecolor="#ffffff"
     bordercolor="#000000"
     borderopacity="0.25"
     inkscape:showpageshadow="2"
     inkscape:pageopacity="0.0"
     inkscape:pagecheckerboard="0"
     inkscape:deskcolor="#d1d1d1"
     inkscape:document-units="px"
     showgrid="false"
     inkscape:zoom="1.4142136"
     inkscape:cx="429.56737"
     inkscape:cy="812.46569"
     inkscape:window-width="1920"
     inkscape:window-height="1017"
     inkscape:window-x="-8"
     inkscape:window-y="-8"
     inkscape:window-maximized="1"
     inkscape:current-layer="g79032"
     inkscape:lockguides="true" /><defs
     id="defs2"><linearGradient
       id="linearGradient49330"
       inkscape:swatch="solid"><stop
         style="stop-color:#222424;stop-opacity:1;"
         offset="0"
         id="stop49328" /></linearGradient></defs><g
     inkscape:groupmode="layer"
     id="layer2"
     inkscape:label="Layer 2"
     style="display:inline"
     transform="translate(-137.19443,-235.82641)"><g
       id="g79032"
       inkscape:label="Skill Teirs"
       inkscape:export-filename="g79032.svg"
       inkscape:export-xdpi="96"
       inkscape:export-ydpi="96"
       style="display:inline"><g
         id="g20790"
         inkscape:label="Defensive"
         style="display:inline"
         inkscape:export-filename="..\..\dev\projects\d4-tools\public\svg\skill\tier\g20790.svg"
         inkscape:export-xdpi="96"
         inkscape:export-ydpi="96"><path
           style="fill:#817d6b;fill-opacity:1;stroke-width:2;stop-color:#000000"
           d="m 143.97039,246.04496 c 0,0 -1.29191,-0.63143 -2.22735,-1.61364 -0.93545,-0.98222 -1.05238,-1.80073 -1.05238,-1.80073 l -0.60803,-0.0234 c 0,0 0.65481,1.96443 1.54348,2.66602 0.88867,0.70158 2.38538,1.56686 2.38538,1.56686 0,0 2.06429,-1.61988 2.65034,-2.15841 0.61186,-0.56224 1.28985,-2.24895 1.28985,-2.24895 h -0.58705 c 0,0 -0.48741,1.32014 -1.36425,2.16627 -0.67178,0.54535 -2.02999,1.44598 -2.02999,1.44598 z"
           id="path694"
           sodipodi:nodetypes="csccscscccc"
           inkscape:export-filename="..\..\dev\projects\d4-tools\public\svg\skill\tier\path694.svg"
           inkscape:export-xdpi="96"
           inkscape:export-ydpi="96" /><path
           style="fill:#817d6b;fill-opacity:1;stroke-width:2;stop-color:#000000"
           d="m 139.84881,240.2251 0.0496,-2.05052 -1.30638,-1.17409 h 4.66328 l 0.79375,-1.17408 0.64493,1.10794 4.39869,0.0661 -0.92604,1.19063 0.0331,2.29857 -0.97364,-0.0165 -0.0145,-2.28203 0.60784,-0.61185 -7.72253,0.0165 0.51839,0.57284 -0.0306,2.05232"
           id="path750"
           sodipodi:nodetypes="ccccccccccccccc" /><path
           style="fill:#817d6b;fill-opacity:1;stroke-width:2;stop-color:#000000"
           d="m 137.19444,241.40282 1.70719,0.59635 5.99794,-0.0144 0.003,-1.41498 -6.05983,0.0613 z"
           id="path906"
           sodipodi:nodetypes="cccccc" /><path
           style="fill:#817d6b;fill-opacity:1;stroke-width:2;stop-color:#000000"
           d="m 145.1691,239.63717 -0.0351,3.39098 -0.11693,0.64312 0.39756,0.0351 0.64312,-1.11084 -0.0351,-2.86479 -0.81851,-0.93545 h -0.38587 z"
           id="path908" /><path
           style="fill:#5c574e;fill-opacity:1;stroke-width:2;stop-color:#000000"
           d="m 144.90174,240.94444 -1.73737,0.008 -2.7e-4,0.58291 1.73633,-0.0206 z"
           id="path1626"
           sodipodi:nodetypes="ccccc" /><path
           id="path6846"
           style="fill:#817d6b;fill-opacity:1;stroke-width:1.77129;stop-color:#000000"
           d="m 149.33662,240.47317 a 0.75240886,0.75240886 0 0 0 -0.75241,0.75241 0.75240886,0.75240886 0 0 0 0.75241,0.7524 0.75240886,0.75240886 0 0 0 0.75241,-0.7524 0.75240886,0.75240886 0 0 0 -0.75241,-0.75241 z m -0.009,0.40979 a 0.35559469,0.34618744 0 0 1 0.35554,0.34623 0.35559469,0.34618744 0 0 1 -0.35554,0.34623 0.35559469,0.34618744 0 0 1 -0.35553,-0.34623 0.35559469,0.34618744 0 0 1 0.35553,-0.34623 z" /><path
           style="display:inline;fill:#6f6c5c;fill-opacity:1;stroke-width:2;stop-color:#000000"
           d="m 143.16666,240.94972 -0.46479,0.12277 -0.003,0.33326 0.46651,0.12915 z"
           id="path1628"
           sodipodi:nodetypes="ccccc" /><path
           style="fill:#6f6c5c;fill-opacity:1;stroke-width:2;stop-color:#000000"
           d="m 145.7204,239.38778 0.3296,0.35779 v 2.85254 l -0.33073,0.59531 z"
           id="path15887"
           sodipodi:nodetypes="ccccc" /><rect
           style="display:inline;fill:#817d6b;fill-opacity:1;stroke-width:2;stop-color:#000000"
           id="rect15941"
           width="0.37620443"
           height="1.0748698"
           x="145.88243"
           y="240.74461" /><rect
           style="fill:#817d6b;fill-opacity:1;stroke-width:2.23096;stop-color:#000000"
           id="rect6900"
           width="2.3456335"
           height="0.64208466"
           x="146.48662"
           y="240.961" /></g></g></g></svg>
