<?xml version="1.0" encoding="UTF-8" standalone="no"?>
<!-- Created with Inkscape (http://www.inkscape.org/) -->

<svg
   width="12.207535mm"
   height="12.348083mm"
   viewBox="0 0 12.207535 12.348083"
   version="1.1"
   id="svg5"
   xml:space="preserve"
   inkscape:version="1.2.2 (732a01da63, 2022-12-09)"
   sodipodi:docname="sorc.svg"
   xmlns:inkscape="http://www.inkscape.org/namespaces/inkscape"
   xmlns:sodipodi="http://sodipodi.sourceforge.net/DTD/sodipodi-0.dtd"
   xmlns="http://www.w3.org/2000/svg"
   xmlns:svg="http://www.w3.org/2000/svg"><sodipodi:namedview
     id="namedview7"
     pagecolor="#ffffff"
     bordercolor="#000000"
     borderopacity="0.25"
     inkscape:showpageshadow="2"
     inkscape:pageopacity="0.0"
     inkscape:pagecheckerboard="0"
     inkscape:deskcolor="#d1d1d1"
     inkscape:document-units="px"
     showgrid="false"
     inkscape:zoom="8"
     inkscape:cx="250.1875"
     inkscape:cy="1578.75"
     inkscape:window-width="1920"
     inkscape:window-height="1017"
     inkscape:window-x="-8"
     inkscape:window-y="-8"
     inkscape:window-maximized="1"
     inkscape:current-layer="g79032"
     inkscape:lockguides="true" /><defs
     id="defs2"><linearGradient
       id="linearGradient49330"
       inkscape:swatch="solid"><stop
         style="stop-color:#222424;stop-opacity:1;"
         offset="0"
         id="stop49328" /></linearGradient></defs><g
     inkscape:groupmode="layer"
     id="layer2"
     inkscape:label="Layer 2"
     style="display:inline"
     transform="translate(-145.57836,-493.31749)"><g
       id="g79032"
       inkscape:label="Skill Teirs"
       inkscape:export-filename="g79032.svg"
       inkscape:export-xdpi="96"
       inkscape:export-ydpi="96"
       style="display:inline"><g
         id="g14113"
         inkscape:label="Mastery"
         style="display:inline"
         inkscape:export-filename="..\..\dev\projects\d4-tools\public\svg\skill\g14113.svg"
         inkscape:export-xdpi="96"
         inkscape:export-ydpi="96"><path
           style="display:inline;fill:#817d6b;fill-opacity:1;stroke-width:2;stop-color:#000000"
           d="m 152.00369,499.18765 -0.5788,0.0116 -0.006,1.12837 c 0,0 -0.15201,0.0702 -0.20462,0.076 -0.0526,0.006 -0.90622,0.0701 -0.90622,0.0701 l -0.35079,0.2748 -0.0117,1.69548 0.14031,0.1111 0.15201,-0.13447 0.0117,-1.15178 0.24555,-0.33909 0.70158,0.006 0.11109,0.67821 0.50865,0.85357 -0.78929,1.23947 v 0.32157 l 0.18125,0.26892 0.16954,1.36809 0.21633,-2.32106 0.92959,0.98806 -0.55542,-1.30376 0.36249,-0.47358 -0.0877,-0.43849 -0.21632,-0.35079 0.46772,-0.006 0.38587,0.23387 0.076,0.74834 0.31571,0.57296 -0.15201,-1.46164 0.28063,-0.25138 c 0,0 -0.19878,-0.14034 -0.23386,-0.14618 -0.0351,-0.006 -1.35054,-0.33325 -1.35054,-0.33325 l 0.24555,-0.5671 z"
           id="path11135"
           inkscape:export-filename="..\..\dev\projects\d4-tools\public\svg\skill\tier\123313444444444512.png.lnk.svg"
           inkscape:export-xdpi="96"
           inkscape:export-ydpi="96" /><path
           id="path11137"
           style="display:inline;fill:#817d6b;fill-opacity:1;stroke-width:2;stop-color:#000000"
           d="m 155.96826,499.46926 -0.29817,0.0114 0.006,0.36846 -0.34468,-0.26872 -0.19896,0.25115 0.47439,0.33434 0.005,0.47233 -0.67231,-0.0171 0.0351,-0.66094 -0.31006,-0.0114 -0.0351,0.46767 -0.28629,-0.32194 -0.22789,0.2806 0.39171,0.19327 -0.35657,0.0527 -0.0527,0.30955 1.17254,0.0336 0.008,0.48575 -1.12861,0.0589 -0.006,0.15193 0.39739,0.14005 -0.42374,0.35088 0.14624,0.18448 0.40618,-0.26044 0.0553,0.44751 0.21653,0.009 0.0207,-0.6258 0.20464,-0.19276 0.4811,5.2e-4 0.0103,0.50488 -0.48576,0.48937 0.19896,0.14573 0.35656,-0.32143 0.0207,0.47956 0.25115,0.006 0.0207,-0.47077 0.32763,0.28319 0.18707,-0.13436 -0.5147,-0.47904 0.0103,-0.52452 0.49816,0.007 0.0481,0.79013 0.26665,0.0176 0.0243,-0.40824 0.43874,0.16433 0.0822,-0.22221 -0.42684,-0.18965 0.42064,-0.12609 -0.016,-0.23978 -1.05936,-0.0408 -0.0103,-0.4718 1.03301,0.004 0.0408,-0.23409 -0.36226,-0.0346 0.42065,-0.37465 -0.22221,-0.22789 -0.32711,0.2806 0.006,-0.44442 -0.36845,-0.0289 0.006,0.73071 -0.45578,0.0119 0.008,-0.54467 0.31367,-0.4377 -0.29248,-0.0878 -0.14005,0.25167 z m -0.17829,1.49034 a 0.25631511,0.25631511 0 0 1 0.25632,0.25632 0.25631511,0.25631511 0 0 1 -0.25632,0.25631 0.25631511,0.25631511 0 0 1 -0.25631,-0.25631 0.25631511,0.25631511 0 0 1 0.25631,-0.25632 z" /><path
           style="display:inline;fill:#817d6b;fill-opacity:1;stroke-width:2;stop-color:#000000"
           d="m 145.57837,498.25219 8.0682,0.0585 c 0,0 0.72497,-0.54957 0.80682,-0.72496 0.0818,-0.17539 0.1637,-0.46773 0,-0.54959 -0.16371,-0.0818 0.0234,-0.28062 0.11693,-0.18709 0.0935,0.0936 0.60804,0.50282 0.35079,0.78343 -0.25725,0.28065 -0.68989,0.59635 -0.5028,0.59635 0.18709,0 3.36759,0.0116 3.36759,0.0116 0,0 -0.18709,-0.58465 -0.64311,-0.68987 -0.45603,-0.10526 -0.40926,-0.0351 -0.40926,-0.0351 0,0 -0.1637,-0.3157 -0.60804,-0.25725 -0.44433,0.0585 -0.60804,-0.35079 -0.43264,-0.51448 0.1754,-0.1637 0.1754,-0.79513 0.0468,-0.94713 -0.12862,-0.15203 -0.81851,-1.11086 -1.35639,-1.18102 -0.53788,-0.0701 -0.76005,0.45603 -0.73666,0.63142 0.0234,0.1754 0.19878,1.62534 -0.19878,2.05799 -0.39757,0.43264 -1.181,0.5145 -1.55518,0.54956 -0.37418,0.0351 -2.61057,-0.17126 -2.70411,-0.2531 -0.0935,-0.0819 -1.24471,0.0326 -1.22475,-0.24969 0.008,-0.11723 0.0702,-0.16369 0.21047,-0.18708 0.14032,-0.0233 4.15103,0.12861 4.29135,0.0818 0.14032,-0.0468 0.61973,-0.73665 0.61973,-0.93543 0,-0.19878 -0.19878,-1.34469 -0.92375,-1.44994 -0.72497,-0.10523 -0.88867,0.40925 -0.86529,0.66651 0.0234,0.25725 0.29233,0.6899 0.53789,0.61973 0.24555,-0.0702 0.67819,-0.53787 0.67819,-0.53787 0,0 0.0351,1.09913 -0.54957,1.09913 -0.58465,0 -1.3447,-0.63143 -1.30962,-1.1576 0.0351,-0.52621 0.6665,-1.30964 1.32131,-1.25116 0.65481,0.0585 1.32132,0.88868 1.32132,0.88868 l 0.0234,-0.99391 c 0,0 -0.6782,-0.88868 -1.50841,-0.87699 -0.8302,0.0116 -2.19829,1.60195 -1.8475,2.28016 0.35079,0.67818 0.83021,1.12252 0.83021,1.12252 0,0 -1.67211,-0.0351 -1.77734,0.0116 -0.10524,0.0468 -0.52032,0.13741 -0.54958,0.0702 -0.0396,-0.0911 0.46348,-0.30271 0.69949,-0.6059 0.25005,-0.32122 0.32613,-0.72679 0.44643,-0.73882 0.23385,-0.0234 -0.98222,-0.12862 -1.37978,0.38587 -0.17745,0.22965 -0.44438,0.50147 -0.48807,0.73038 -0.0542,0.28393 0.1304,0.51075 0.0203,0.61433 -0.19878,0.18708 -2.1866,1.06405 -2.1866,1.06405 z"
           id="path11195"
           sodipodi:nodetypes="ccssssscscssssssssssssssscsssccsscssssssscc" /><path
           id="path11041"
           style="fill:#817d6b;fill-opacity:1;stroke-width:2;stop-color:#000000"
           d="m 147.40337,499.22117 c 0,0 -0.16325,1.00211 -0.10262,1.13905 0.064,0.14447 0.1533,0.50471 0.0524,0.73875 -0.0412,0.0957 -0.19395,-0.3541 -0.19395,-0.3541 -0.0111,0.17644 -0.0999,0.47531 -0.13226,0.66641 -0.0317,0.1911 -0.18765,0.10407 -0.12806,0.74031 0,0 -0.19453,-0.5293 -0.13704,-0.73493 0.027,-0.0965 0.24463,-0.59891 0.23019,-0.69519 -0.0351,-0.23386 -0.18848,-0.58167 -0.18848,-0.58167 0.13074,0.51857 -0.26037,0.72415 -0.38326,1.03436 -0.15042,0.34317 -0.1313,0.60437 0.0256,0.93769 -0.23421,-0.13811 -0.27815,-0.66533 -0.28434,-0.65436 -0.10189,0.18088 -0.13711,0.8027 0.21663,1.1233 0.19029,0.17249 0.15824,0.46781 0.78961,0.44442 0.63143,-0.0233 1.08718,-0.32781 1.22164,-0.62012 0.13418,-0.29172 0.18711,-0.53207 0.12867,-0.81856 -0.0462,-0.22656 -0.44295,-0.74769 -0.40514,-0.96479 -0.04,0.1535 0.005,0.74417 0.11214,0.91938 0.16557,0.26973 -0.24413,0.95109 -0.31305,0.94135 -0.10967,-0.0155 0.25421,-0.38821 0.23784,-0.73445 -0.006,-0.12848 -0.26549,-0.21073 -0.35062,-0.47956 -0.0513,-0.16204 0.0786,-0.34906 0.0123,-0.72142 -0.0663,-0.37236 -0.28998,-0.90749 -0.40821,-1.32587 z"
           sodipodi:nodetypes="cssszcssccccsssscsssszcc" /></g></g><path
       style="display:inline;fill:#817d6b;fill-opacity:1;stroke-width:2;stop-color:#000000"
       d="m 148.45194,499.37766 c 0,0 0.17978,0.29818 0.17394,0.48088 -0.006,0.17366 -0.23063,0.58749 -0.23063,0.58749 0,0 0.0397,-0.39834 0.0442,-0.57813 0.004,-0.1672 -0.0475,-0.53117 -0.0475,-0.53117 z"
       id="path11097"
       sodipodi:nodetypes="cscscc" /></g></svg>
