<?xml version="1.0" encoding="UTF-8" standalone="no"?>
<!-- Created with Inkscape (http://www.inkscape.org/) -->

<svg
   width="12.207535mm"
   height="12.348083mm"
   viewBox="0 0 12.207535 12.348083"
   version="1.1"
   id="svg5"
   xml:space="preserve"
   inkscape:version="1.2.2 (732a01da63, 2022-12-09)"
   sodipodi:docname="sorc.svg"
   xmlns:inkscape="http://www.inkscape.org/namespaces/inkscape"
   xmlns:sodipodi="http://sodipodi.sourceforge.net/DTD/sodipodi-0.dtd"
   xmlns="http://www.w3.org/2000/svg"
   xmlns:svg="http://www.w3.org/2000/svg"><sodipodi:namedview
     id="namedview7"
     pagecolor="#ffffff"
     bordercolor="#000000"
     borderopacity="0.25"
     inkscape:showpageshadow="2"
     inkscape:pageopacity="0.0"
     inkscape:pagecheckerboard="0"
     inkscape:deskcolor="#d1d1d1"
     inkscape:document-units="px"
     showgrid="false"
     inkscape:zoom="8"
     inkscape:cx="250.1875"
     inkscape:cy="1578.75"
     inkscape:window-width="1920"
     inkscape:window-height="1017"
     inkscape:window-x="-8"
     inkscape:window-y="-8"
     inkscape:window-maximized="1"
     inkscape:current-layer="g79032"
     inkscape:lockguides="true" /><defs
     id="defs2"><linearGradient
       id="linearGradient49330"
       inkscape:swatch="solid"><stop
         style="stop-color:#222424;stop-opacity:1;"
         offset="0"
         id="stop49328" /></linearGradient></defs><g
     inkscape:groupmode="layer"
     id="layer2"
     inkscape:label="Layer 2"
     style="display:inline"
     transform="translate(-145.57836,-493.31749)"><g
       id="g79032"
       inkscape:label="Skill Teirs"
       inkscape:export-filename="g79032.svg"
       inkscape:export-xdpi="96"
       inkscape:export-ydpi="96"
       style="display:inline"><g
         id="g14113"
         inkscape:label="Mastery"
         style="display:inline"><path
           style="display:inline;fill:#817d6b;fill-opacity:1;stroke-width:2;stop-color:#000000"
           d="m 152.00369,499.18765 -0.5788,0.0116 -0.006,1.12837 c 0,0 -0.15201,0.0702 -0.20462,0.076 -0.0526,0.006 -0.90622,0.0701 -0.90622,0.0701 l -0.35079,0.2748 -0.0117,1.69548 0.14031,0.1111 0.15201,-0.13447 0.0117,-1.15178 0.24555,-0.33909 0.70158,0.006 0.11109,0.67821 0.50865,0.85357 -0.78929,1.23947 v 0.32157 l 0.18125,0.26892 0.16954,1.36809 0.21633,-2.32106 0.92959,0.98806 -0.55542,-1.30376 0.36249,-0.47358 -0.0877,-0.43849 -0.21632,-0.35079 0.46772,-0.006 0.38587,0.23387 0.076,0.74834 0.31571,0.57296 -0.15201,-1.46164 0.28063,-0.25138 c 0,0 -0.19878,-0.14034 -0.23386,-0.14618 -0.0351,-0.006 -1.35054,-0.33325 -1.35054,-0.33325 l 0.24555,-0.5671 z"
           id="path11135" /><path
           id="path11137"
           style="display:inline;fill:#817d6b;fill-opacity:1;stroke-width:2;stop-color:#000000"
           d="m 155.96826,499.46926 -0.29817,0.0114 0.006,0.36846 -0.34468,-0.26872 -0.19896,0.25115 0.47439,0.33434 0.005,0.47233 -0.67231,-0.0171 0.0351,-0.66094 -0.31006,-0.0114 -0.0351,0.46767 -0.28629,-0.32194 -0.22789,0.2806 0.39171,0.19327 -0.35657,0.0527 -0.0527,0.30955 1.17254,0.0336 0.008,0.48575 -1.12861,0.0589 -0.006,0.15193 0.39739,0.14005 -0.42374,0.35088 0.14624,0.18448 0.40618,-0.26044 0.0553,0.44751 0.21653,0.009 0.0207,-0.6258 0.20464,-0.19276 0.4811,5.2e-4 0.0103,0.50488 -0.48576,0.48937 0.19896,0.14573 0.35656,-0.32143 0.0207,0.47956 0.25115,0.006 0.0207,-0.47077 0.32763,0.28319 0.18707,-0.13436 -0.5147,-0.47904 0.0103,-0.52452 0.49816,0.007 0.0481,0.79013 0.26665,0.0176 0.0243,-0.40824 0.43874,0.16433 0.0822,-0.22221 -0.42684,-0.18965 0.42064,-0.12609 -0.016,-0.23978 -1.05936,-0.0408 -0.0103,-0.4718 1.03301,0.004 0.0408,-0.23409 -0.36226,-0.0346 0.42065,-0.37465 -0.22221,-0.22789 -0.32711,0.2806 0.006,-0.44442 -0.36845,-0.0289 0.006,0.73071 -0.45578,0.0119 0.008,-0.54467 0.31367,-0.4377 -0.29248,-0.0878 -0.14005,0.25167 z m -0.17829,1.49034 a 0.25631511,0.25631511 0 0 1 0.25632,0.25632 0.25631511,0.25631511 0 0 1 -0.25632,0.25631 0.25631511,0.25631511 0 0 1 -0.25631,-0.25631 0.25631511,0.25631511 0 0 1 0.25631,-0.25632 z" /><path
           style="display:inline;fill:#817d6b;fill-opacity:1;stroke-width:2;stop-color:#000000"
           d="m 145.57837,498.25219 8.0682,0.0585 c 0,0 0.72497,-0.54957 0.80682,-0.72496 0.0818,-0.17539 0.1637,-0.46773 0,-0.54959 -0.16371,-0.0818 0.0234,-0.28062 0.11693,-0.18709 0.0935,0.0936 0.60804,0.50282 0.35079,0.78343 -0.25725,0.28065 -0.68989,0.59635 -0.5028,0.59635 0.18709,0 3.36759,0.0116 3.36759,0.0116 0,0 -0.18709,-0.58465 -0.64311,-0.68987 -0.45603,-0.10526 -0.40926,-0.0351 -0.40926,-0.0351 0,0 -0.1637,-0.3157 -0.60804,-0.25725 -0.44433,0.0585 -0.60804,-0.35079 -0.43264,-0.51448 0.1754,-0.1637 0.1754,-0.79513 0.0468,-0.94713 -0.12862,-0.15203 -0.81851,-1.11086 -1.35639,-1.18102 -0.53788,-0.0701 -0.76005,0.45603 -0.73666,0.63142 0.0234,0.1754 0.19878,1.62534 -0.19878,2.05799 -0.39757,0.43264 -1.181,0.5145 -1.55518,0.54956 -0.37418,0.0351 -2.61057,-0.17126 -2.70411,-0.2531 -0.0935,-0.0819 -1.24471,0.0326 -1.22475,-0.24969 0.008,-0.11723 0.0702,-0.16369 0.21047,-0.18708 0.14032,-0.0233 4.15103,0.12861 4.29135,0.0818 0.14032,-0.0468 0.61973,-0.73665 0.61973,-0.93543 0,-0.19878 -0.19878,-1.34469 -0.92375,-1.44994 -0.72497,-0.10523 -0.88867,0.40925 -0.86529,0.66651 0.0234,0.25725 0.29233,0.6899 0.53789,0.61973 0.24555,-0.0702 0.67819,-0.53787 0.67819,-0.53787 0,0 0.0351,1.09913 -0.54957,1.09913 -0.58465,0 -1.3447,-0.63143 -1.30962,-1.1576 0.0351,-0.52621 0.6665,-1.30964 1.32131,-1.25116 0.65481,0.0585 1.32132,0.88868 1.32132,0.88868 l 0.0234,-0.99391 c 0,0 -0.6782,-0.88868 -1.50841,-0.87699 -0.8302,0.0116 -2.19829,1.60195 -1.8475,2.28016 0.35079,0.67818 0.83021,1.12252 0.83021,1.12252 0,0 -1.67211,-0.0351 -1.77734,0.0116 -0.10524,0.0468 -0.52032,0.13741 -0.54958,0.0702 -0.0396,-0.0911 0.46348,-0.30271 0.69949,-0.6059 0.25005,-0.32122 0.32613,-0.72679 0.44643,-0.73882 0.23385,-0.0234 -0.98222,-0.12862 -1.37978,0.38587 -0.17745,0.22965 -0.44438,0.50147 -0.48807,0.73038 -0.0542,0.28393 0.1304,0.51075 0.0203,0.61433 -0.19878,0.18708 -2.1866,1.06405 -2.1866,1.06405 z"
           id="path11195"
           sodipodi:nodetypes="ccssssscscssssssssssssssscsssccsscssssssscc" /><path
           id="path11041"
           style="fill:#817d6b;fill-opacity:1;stroke-width:2;stop-color:#000000"
           d="m 147.44785,499.15868 c 0,0 -0.0969,0.98176 -0.032,1.11673 0.13277,0.27611 0.009,0.83561 0.009,0.83561 0,0 -0.29255,-0.22193 -0.32763,-0.45579 -0.0351,-0.23386 -0.23357,-0.54984 -0.23357,-0.54984 0,0 0.0702,0.57296 -0.0351,0.68988 -0.10526,0.11693 -0.32877,-0.18937 -0.33487,-0.18293 -0.0639,0.0675 0.0797,0.52059 -0.0186,0.61495 -0.0881,0.0845 -0.2434,-0.14211 -0.2434,-0.14211 -0.0444,0.17749 0.17355,0.42911 0.13901,0.45113 -0.075,0.0478 -0.34262,-0.15566 -0.34881,-0.14469 -0.10189,0.18088 0.10777,0.80233 0.46147,1.12293 0.19029,0.17249 0.15824,0.46781 0.78961,0.44442 0.63143,-0.0233 1.08718,-0.32781 1.22164,-0.62012 0.13418,-0.29172 0.18711,-0.53207 0.12867,-0.81856 -0.0462,-0.22656 -0.44295,-0.74769 -0.40514,-0.96479 -0.04,0.1535 -0.067,0.67585 -0.12044,0.87436 -0.051,0.18969 -0.46154,-0.0642 -0.30954,-0.32143 0.15197,-0.25727 -5.6e-4,-0.95613 -0.12919,-1.11983 -0.12862,-0.16372 -0.21084,-0.82992 -0.21084,-0.82992 z m -0.52917,1.97456 c 0.002,5.9e-4 0.002,0.009 -5.2e-4,0.0269 -0.0165,0.11575 0.13643,0.16124 0.13643,0.21084 0,0.0496 -0.10959,0.11575 -0.15089,0.11575 -0.0413,0 -0.1447,-0.0496 -0.1447,-0.13849 0.0732,-0.005 0.14803,-0.21815 0.15968,-0.21497 z m -0.35502,0.44131 c 0.0268,-4e-4 0.0326,0.0242 0.0326,0.0486 0,0.0289 -0.0269,0.054 -0.0558,0.062 -0.029,0.008 -0.0559,0.0393 -0.0579,0.0765 -0.002,0.0372 0.0429,0.10126 0.008,0.13436 -0.0351,0.033 -0.0703,0.0558 -0.13849,0.0558 -0.0683,0 -0.095,-0.0517 -0.10955,-0.093 h 5.1e-4 c -0.006,-0.0558 0.1261,-0.1633 0.1757,-0.2067 0.0496,-0.0434 0.0869,-0.062 0.12816,-0.0744 0.007,-0.002 0.0121,-0.003 0.0171,-0.003 z m 1.65985,0.12971 c 7.8e-4,-5e-5 0.002,0 0.003,0 0.0373,-10e-5 0.0553,0.0328 0.0894,0.0646 0.0331,0.0287 0.04,0.12296 0.032,0.18706 -0.008,0.0641 -0.0197,0.0888 -0.0858,0.11783 -0.0661,0.0289 -0.093,8.7e-4 -0.12609,-0.0393 -0.0383,-0.0465 -0.0432,-0.0982 -0.0352,-0.1726 0,0 0.0414,-0.0795 0.0889,-0.13745 0.0111,-0.0136 0.0225,-0.0195 0.0341,-0.0202 z m -1.31206,0.076 c 0.0485,2e-4 0.0622,0.18349 0.0791,0.2191 0.0186,0.0393 0.0577,0.10957 0.0517,0.15917 -0.0145,0.0165 -0.029,0.0722 -0.0848,0.0868 -0.0558,0.0144 -0.25629,-0.0393 -0.27079,-0.091 -0.0145,-0.0516 0.0827,-0.06 0.11989,-0.091 0.0372,-0.031 0.0269,-0.23148 0.0889,-0.27698 0.006,-0.004 0.011,-0.006 0.016,-0.006 z m 1.04903,0.4439 c 0.006,-3.1e-4 0.0241,-0.0166 0.0305,-0.016 0.0682,0.006 0.11782,-4e-5 0.10335,0.0889 -0.0145,0.0889 -0.009,0.16227 -0.0364,0.19741 -0.0353,0.0445 -0.0827,0.0734 -0.12816,0.0734 -0.0445,0 -0.0987,-0.0641 -0.1008,-0.0651 -0.0372,-0.1013 -0.0589,-0.11264 0.003,-0.185 0.0324,-0.0717 0.0348,-0.0934 0.0894,-0.0935 z"
           sodipodi:nodetypes="sscscssscscsssscssscsssscsssccssccssssscccccssssccssssscssscssssccsc" /></g></g></g></svg>
