<?xml version="1.0" encoding="UTF-8" standalone="no"?>
<!-- Created with Inkscape (http://www.inkscape.org/) -->

<svg
   width="11.724346mm"
   height="13.026642mm"
   viewBox="0 0 11.724346 13.026642"
   version="1.1"
   id="svg5"
   xml:space="preserve"
   inkscape:version="1.2.2 (732a01da63, 2022-12-09)"
   sodipodi:docname="sorc.svg"
   xmlns:inkscape="http://www.inkscape.org/namespaces/inkscape"
   xmlns:sodipodi="http://sodipodi.sourceforge.net/DTD/sodipodi-0.dtd"
   xmlns="http://www.w3.org/2000/svg"
   xmlns:svg="http://www.w3.org/2000/svg"><sodipodi:namedview
     id="namedview7"
     pagecolor="#ffffff"
     bordercolor="#000000"
     borderopacity="0.25"
     inkscape:showpageshadow="2"
     inkscape:pageopacity="0.0"
     inkscape:pagecheckerboard="0"
     inkscape:deskcolor="#d1d1d1"
     inkscape:document-units="px"
     showgrid="false"
     inkscape:zoom="5.6568546"
     inkscape:cx="423.46855"
     inkscape:cy="393.15135"
     inkscape:window-width="1920"
     inkscape:window-height="1017"
     inkscape:window-x="-8"
     inkscape:window-y="-8"
     inkscape:window-maximized="1"
     inkscape:current-layer="g79032"
     inkscape:lockguides="true" /><defs
     id="defs2"><linearGradient
       id="linearGradient49330"
       inkscape:swatch="solid"><stop
         style="stop-color:#222424;stop-opacity:1;"
         offset="0"
         id="stop49328" /></linearGradient></defs><g
     inkscape:groupmode="layer"
     id="layer2"
     inkscape:label="Layer 2"
     style="display:inline"
     transform="translate(-53.478902,-150.2668)"><g
       id="g79032"
       inkscape:label="Skill Teirs"
       inkscape:export-filename="g79032.svg"
       inkscape:export-xdpi="96"
       inkscape:export-ydpi="96"
       style="display:inline"><g
         id="g1546"
         inkscape:label="Core"
         style="display:inline;fill:#817d6b;fill-opacity:1"
         inkscape:export-filename="core.svg"
         inkscape:export-xdpi="96"
         inkscape:export-ydpi="96"><path
           style="fill:#817d6b;fill-opacity:1;stroke:none;stroke-width:2;stop-color:#000000"
           d="m 56.736585,159.49413 -3.257682,-3.19154 5.936588,-6.0358 5.787758,6.06887 -3.307289,3.47266 -0.03307,-0.77721 2.66237,-2.6293 -5.076693,-5.14284 -5.076692,5.10977 2.480468,2.43086 z"
           id="path828" /><path
           style="fill:#817d6b;fill-opacity:1;stroke:none;stroke-width:2;stop-color:#000000"
           d="m 56.290299,162.76713 c 0,0 1.169305,-0.73666 1.824114,-0.53788 0.65481,0.19878 1.730571,1.07576 2.61924,1.06407 0.888672,-0.0117 1.438246,-0.8419 1.438246,-0.8419 0,0 -0.748355,0.35079 -1.216078,0.31571 -0.467719,-0.0351 -1.929349,-1.13422 -2.666013,-1.181 -0.73666,-0.0468 -1.999509,1.181 -1.999509,1.181 z"
           id="path1440" /><path
           style="fill:#817d6b;fill-opacity:1;stroke:none;stroke-width:2;stop-color:#000000"
           d="m 55.413322,161.89015 c 0,0 1.601946,-1.21607 2.607548,-1.05237 1.005602,0.1637 2.537389,1.23946 3.215584,1.1693 0.678199,-0.0702 1.461633,-1.1693 1.555176,-1.48501 0.09354,-0.31572 -0.257246,0.99391 -1.578559,0.64311 -1.321316,-0.35079 -1.777344,-0.77174 -2.853103,-0.90036 -1.075761,-0.12862 -1.905966,0.25725 -2.946646,1.62533 z"
           id="path1442" /><path
           style="fill:#817d6b;fill-opacity:1;stroke:none;stroke-width:2;stop-color:#000000"
           d="m 58.886155,156.63998 0.420948,3.3559 0.736663,-3.84701 2.350301,1.11084 -1.391472,-1.8475 c 0,0 1.543481,-0.46772 1.414859,-0.5028 -0.128625,-0.0351 -1.999512,-0.3508 -2.069669,-0.44434 -0.07016,-0.0935 -0.830207,-1.3447 -0.830207,-1.3447 l -0.760047,1.29793 -2.209985,0.40926 1.368086,0.40925 -1.543481,1.95274 2.38538,-0.95883 z"
           id="path1444"
           sodipodi:nodetypes="cccccssccccccc" /></g></g></g></svg>
