<?xml version="1.0" encoding="UTF-8" standalone="no"?>

<svg
   width="11.967789mm"
   height="11.884094mm"
   viewBox="0 0 11.967789 11.884094"
   version="1.1"
   id="svg5"
   xml:space="preserve"
   inkscape:version="1.2.2 (732a01da63, 2022-12-09)"
   sodipodi:docname="sorc.svg"
   xmlns:inkscape="http://www.inkscape.org/namespaces/inkscape"
   xmlns:sodipodi="http://sodipodi.sourceforge.net/DTD/sodipodi-0.dtd"
   xmlns="http://www.w3.org/2000/svg"
   xmlns:svg="http://www.w3.org/2000/svg"><sodipodi:namedview
     id="namedview7"
     pagecolor="#ffffff"
     bordercolor="#000000"
     borderopacity="0.25"
     inkscape:showpageshadow="2"
     inkscape:pageopacity="0.0"
     inkscape:pagecheckerboard="0"
     inkscape:deskcolor="#d1d1d1"
     inkscape:document-units="px"
     showgrid="false"
     inkscape:zoom="2.0000001"
     inkscape:cx="485.24999"
     inkscape:cy="296.49999"
     inkscape:window-width="1920"
     inkscape:window-height="1017"
     inkscape:window-x="-8"
     inkscape:window-y="-8"
     inkscape:window-maximized="1"
     inkscape:current-layer="g53266-1"
     inkscape:lockguides="false"
     showguides="true" /><defs
     id="defs2"><linearGradient
       id="linearGradient49330"
       inkscape:swatch="solid"><stop
         style="stop-color:#222424;stop-opacity:1;"
         offset="0"
         id="stop49328" /></linearGradient></defs><g
     inkscape:groupmode="layer"
     id="layer10"
     inkscape:label="Tier 1"
     style="display:inline"
     transform="translate(-136.47501,-104.39634)"><path
       style="display:inline;opacity:1;fill:#817d6b;fill-opacity:1;stroke:none;stroke-width:0.264583;stop-color:#000000"
       d="m 137.24667,108.95662 2.43215,-4.16272 0.0468,1.14591 4.72399,-1.54348 -0.60804,0.81852 4.40828,2.48477 -1.27454,-0.006 1.46748,4.95785 -0.90621,-1.05237 -2.27723,4.40681 -0.073,-0.99246 -4.74796,1.26698 0.66709,-0.70571 -4.34981,-2.38538 0.96321,-0.0512 c 0,0 -0.67638,-2.84844 -1.07576,-4.25626 v -4e-5 c -0.0509,-0.17936 -0.16811,-0.53346 -0.16811,-0.53346 l 0.77174,0.60804 0.50604,0.44577 0.13927,1.90372 0.73147,1.94104 2.48491,1.69153 c 0,0 1.71901,0.16492 1.74381,0.13182 0.0248,-0.0331 2.32787,-0.7281 2.32787,-0.7281 l 1.23848,-1.62071 0.5543,-1.33284 0.03,-2.02261 -0.9237,-1.99704 -1.0606,-0.92944 -1.55518,-0.74836 -1.48502,-0.0351 -1.74226,0.70158 -1.18902,0.95291 -0.81793,1.09856 c -0.0356,0.0478 -0.47889,0.99938 -0.47889,0.99938"
       id="path434"
       sodipodi:nodetypes="ccsscccccccccccccccccccsccccccccccsc"
       inkscape:export-filename="path434.svg"
       inkscape:export-xdpi="96"
       inkscape:export-ydpi="96" /><circle
       style="font-variation-settings:normal;opacity:1;vector-effect:none;fill:none;fill-opacity:1;stroke:#837f6e;stroke-width:0.259381;stroke-linecap:butt;stroke-linejoin:miter;stroke-miterlimit:4;stroke-dasharray:none;stroke-dashoffset:0;stroke-opacity:1;-inkscape-stroke:none;stop-color:#000000;stop-opacity:1"
       id="path30868"
       cx="142.49286"
       cy="110.5248"
       r="2.7855449" /><path
       style="font-variation-settings:normal;opacity:1;vector-effect:none;fill:#817d6b;fill-opacity:1;stroke:none;stroke-width:0.264583;stroke-linecap:butt;stroke-linejoin:miter;stroke-miterlimit:4;stroke-dasharray:none;stroke-dashoffset:0;stroke-opacity:1;-inkscape-stroke:none;stop-color:#000000;stop-opacity:1"
       d="m 140.20688,110.61249 c 0,0 0.45602,-0.57881 0.5028,-0.57296 0.0468,0.006 0.71327,-0.0585 0.77758,-0.0585 0.0643,0 0.46773,0.0117 0.46773,0.0117 0,0 0.33909,0.0819 0.36248,0.0994 0.0234,0.0175 0.71912,0.13447 0.71912,0.13447 l 0.0292,0.22217 c 0,0 -0.59634,0.32156 -0.67235,0.35079 -0.076,0.0292 -0.30986,0.11693 -0.38587,0.1637 -0.076,0.0468 -0.49695,0.0994 -0.64896,0.10524 -0.15201,0.006 -0.7542,0.006 -0.7542,0.006 l -0.28648,-0.15201 z"
       id="path33719" /><path
       style="font-variation-settings:normal;opacity:1;vector-effect:none;fill:#817d6b;fill-opacity:1;stroke:none;stroke-width:0.264583;stroke-linecap:butt;stroke-linejoin:miter;stroke-miterlimit:4;stroke-dasharray:none;stroke-dashoffset:0;stroke-opacity:1;-inkscape-stroke:none;stop-color:#000000;stop-opacity:1"
       d="m 140.37058,111.32577 0.18124,0.53788 c 0,0 0.23971,0.29232 0.32156,0.37417 0.0819,0.0819 0.14616,0.11693 0.27479,0.18709 0.12862,0.0702 0.59634,0.35664 0.63142,0.37418 0.0351,0.0175 0.19293,0.0877 0.2514,0.0877 0.0585,0 0.52619,0.0468 0.62558,0.0409 0.0994,-0.006 0.60803,-0.13447 0.63727,-0.14031 0.0292,-0.006 0.71912,-0.3508 0.73081,-0.37418 0.0117,-0.0234 0.38003,-0.38587 0.40341,-0.43264 0.0234,-0.0468 0.23971,-0.47942 0.2514,-0.50865 0.0117,-0.0292 0.0175,-0.70743 0.0175,-0.70743 l -0.0877,-0.26309 c 0,0 -0.24556,-0.0643 -0.26894,-0.0643 -0.0234,0 -0.39756,0.12278 -0.45018,0.14617 -0.0526,0.0234 -0.3391,0.0468 -0.36833,0.0526 -0.0292,0.006 -0.4385,0.0351 -0.47357,0.0468 -0.0351,0.0117 -0.30402,0.16955 -0.36249,0.19878 -0.0585,0.0292 -0.24555,0.18124 -0.30986,0.21047 -0.0643,0.0292 -0.46772,0.14032 -0.56712,0.14617 -0.0994,0.006 -0.23386,0.0234 -0.42679,0.0117 -0.19294,-0.0117 -0.64312,-0.0526 -0.68989,-0.0468 -0.0468,0.006 -0.32156,0.12278 -0.32156,0.12278 z"
       id="path35569" /></g></svg>
